. 
 
http://www.torrenting.com          :     Once & For all ;)


               www . Torrenting . Com 

(((((((((((((= Enjoy No RAR releases =))))))))))))))))))))


...................................NFO:....................................

.+-----------------------------------------------------------------------------+
+----------------------------------FUSiON-------------------------------------+
+-----------------------------------------------------------------------------+
+-----------------------------------------------------------------------------+
PLOT :------------------------------------------------------------------------+
+-----------------------------------------------------------------------------+

Sam Flynn, the tech-savvy 27-year-old son of Kevin Flynn, looks into his father's 
disappearance and finds himself pulled into the same world of fierce programs and 
gladiatorial games where his father has been living for 20 years. Along with 
Kevin's loyal confidant, father and son embark on a life-and-death journey across 
a visually-stunning cyber universe that has become far more advanced and 
exceedingly dangerous.

+-----------------------------------------------------------------------------+
Short Info :------------------------------------------------------------------+
+-----------------------------------------------------------------------------+

Genre:............:  Action, Adventure, Sci-Fi
Directed by.......: Joseph Kosinski
Starring..........: Jeff Bridges, Garrett Hedlund, Olivia Wilde, Bruce Boxleitner
Release Name......: Tron.Legacy.2010.DVDRip.XviD-FURiES
Release Group.....: FURiES
Size..............: 1.74 GB
Video.............: 720x304 639 Kbps 23.976 fps
Audio.............: MP3 320 Kbps
Language:.........: English
Subtitles.........: English, Croatian

+-----------------------------------------------------------------------------+
Full Info :-------------------------------------------------------------------+
+-----------------------------------------------------------------------------+
   General
      Complete name : D:\Filmovi\Tron.Legacy.2010.DVDRip.XviD-FURiES.avi
      Format : AVI
      Format/Info : Audio Video Interleave
      Format profile : OpenDML
      File size : 1.74 GiB
      Duration : 02:05:08
      Overall bit rate : 767 Kbps
      Writing application : Lavf51.12.1
   Video
      Format : xvid
      Codec ID : xvid
      Duration : 02:05:08
      Bit rate : 639 Kbps
      Width : 720 pixels
      Height : 304 pixels
      Display aspect ratio : 2.35:1
      Frame rate : 23.976 fps
      Resolution : 24 bits
      Bits/(Pixel*Frame) : 0.122
      Stream size : 1.45 GiB (83%)
   Audio #1
      ID : 1
      Format : MPEG Audio
      Format version : Version 1
      Format profile : Layer 3
      Codec ID : 55
      Codec ID/Hint : MP3
      Duration : 2h 5mn
      Bit rate mode : Constant
      Bit rate : 320 Kbps
      Channel(s) : 2 channels
      Sampling rate : 44.1 KHz
      Resolution : 16 bits
      Stream size : 286 MiB (16%)
      Alignment : Aligned on interleaves
      Interleave, duration : 26 ms (0.63 video frame)
      Interleave, preload duration : 26 ms
      Writing library : LAME3.97
+-----------------------------------------------------------------------------+
IMDB : -----------------------------------------------------------------------+
+-----------------------------------------------------------------------------+
 
http://www.imdb.com/title/tt1104001/

+-----------------------------------------------------------------------------+
Screens :---------------------------------------------------------------------+
+-----------------------------------------------------------------------------+

[img]http://img718.imageshack.us/img718/1208/tronnnz.jpg[/img]
[img]http://img822.imageshack.us/img822/474/tronnnn.jpg[/img]
[img]http://img854.imageshack.us/img854/3553/tronnnnn.jpg[/img]
[img]http://img508.imageshack.us/img508/1598/tronnnnnn.jpg[/img]
[img]http://img849.imageshack.us/img849/1633/tronnnnnnn.jpg[/img]

+-----------------------------------------------------------------------------+
Greetings and Respect :-------------------------------------------------------+
+-----------------------------------------------------------------------------+

ViSiON, CM8, BHRG, NODLABS, AMIABLE, THUGLiNE, NeDiVx, Larceny, 
PRESTiGE, HD4U, LOST, PSYCHD  ...

+-----------------------------------------------------------------------------+
+----------------------------------FUSiON-------------------------------------+
+-----------------------------------------------------------------------------+